<svg xmlns="http://www.w3.org/2000/svg" xmlns:xlink="http://www.w3.org/1999/xlink" width="500" zoomAndPan="magnify" viewBox="0 0 375 374.999991" height="500" preserveAspectRatio="xMidYMid meet" version="1.0"><defs><g/><clipPath id="db0180236f"><path d="M 19.5 131.25 L 132 131.25 L 132 243.75 L 19.5 243.75 Z M 19.5 131.25 " clip-rule="nonzero"/></clipPath><clipPath id="3113a1ad65"><path d="M 0.5 0.25 L 113 0.25 L 113 112.75 L 0.5 112.75 Z M 0.5 0.25 " clip-rule="nonzero"/></clipPath><clipPath id="dde9f3368d"><rect x="0" width="113" y="0" height="113"/></clipPath></defs><g clip-path="url(#db0180236f)"><g transform="matrix(1, 0, 0, 1, 19, 131)"><g clip-path="url(#dde9f3368d)"><g clip-path="url(#3113a1ad65)"><path fill="#1c1c1c" d="M 0.5 0.25 L 113 0.25 L 113 112.75 L 0.5 112.75 Z M 0.5 0.25 " fill-opacity="1" fill-rule="nonzero"/></g></g></g></g><g fill="#ffffff" fill-opacity="1"><g transform="translate(41.433195, 218.749922)"><g><path d="M 9.953125 -1.03125 C 10.566406 -1.03125 11.148438 -1.078125 11.703125 -1.171875 C 12.253906 -1.273438 12.738281 -1.457031 13.15625 -1.71875 C 13.582031 -1.988281 13.921875 -2.363281 14.171875 -2.84375 C 14.421875 -3.320312 14.546875 -3.960938 14.546875 -4.765625 L 14.546875 -36.921875 C 12.628906 -36.992188 11.316406 -37.039062 10.609375 -37.0625 C 9.898438 -37.082031 9.445312 -37.09375 9.25 -37.09375 C 6.988281 -37.050781 5.285156 -36.300781 4.140625 -34.84375 C 2.992188 -33.382812 2.34375 -31.5625 2.1875 -29.375 L 1.15625 -29.375 L 1.5 -38.578125 C 2.375 -38.617188 3.222656 -38.640625 4.046875 -38.640625 C 4.878906 -38.640625 5.617188 -38.640625 6.265625 -38.640625 C 7.796875 -38.640625 9.15625 -38.628906 10.34375 -38.609375 C 11.53125 -38.585938 12.601562 -38.566406 13.5625 -38.546875 C 14.519531 -38.535156 15.382812 -38.519531 16.15625 -38.5 C 16.925781 -38.476562 17.675781 -38.46875 18.40625 -38.46875 C 19.132812 -38.46875 19.890625 -38.476562 20.671875 -38.5 C 21.453125 -38.519531 22.332031 -38.535156 23.3125 -38.546875 C 24.289062 -38.566406 25.382812 -38.585938 26.59375 -38.609375 C 27.800781 -38.628906 29.207031 -38.640625 30.8125 -38.640625 C 31.507812 -38.640625 32.28125 -38.640625 33.125 -38.640625 C 33.96875 -38.640625 34.828125 -38.617188 35.703125 -38.578125 L 36.109375 -29.375 L 35.078125 -29.375 C 34.992188 -30.332031 34.800781 -31.269531 34.5 -32.1875 C 34.195312 -33.113281 33.742188 -33.941406 33.140625 -34.671875 C 32.546875 -35.398438 31.816406 -35.992188 30.953125 -36.453125 C 30.097656 -36.910156 29.09375 -37.140625 27.9375 -37.140625 C 27.820312 -37.140625 27.695312 -37.140625 27.5625 -37.140625 C 27.4375 -37.140625 27.191406 -37.128906 26.828125 -37.109375 C 26.460938 -37.097656 25.953125 -37.070312 25.296875 -37.03125 C 24.648438 -36.988281 23.789062 -36.953125 22.71875 -36.921875 L 22.71875 -4.765625 C 22.71875 -3.960938 22.835938 -3.320312 23.078125 -2.84375 C 23.328125 -2.363281 23.660156 -1.988281 24.078125 -1.71875 C 24.503906 -1.457031 24.992188 -1.273438 25.546875 -1.171875 C 26.109375 -1.078125 26.695312 -1.03125 27.3125 -1.03125 L 27.3125 0 C 26.164062 0 25.175781 -0.0078125 24.34375 -0.03125 C 23.519531 -0.0507812 22.789062 -0.078125 22.15625 -0.109375 C 21.53125 -0.148438 20.929688 -0.179688 20.359375 -0.203125 C 19.785156 -0.222656 19.191406 -0.234375 18.578125 -0.234375 C 17.921875 -0.234375 17.320312 -0.222656 16.78125 -0.203125 C 16.25 -0.179688 15.664062 -0.148438 15.03125 -0.109375 C 14.40625 -0.078125 13.6875 -0.0507812 12.875 -0.03125 C 12.070312 -0.0078125 11.097656 0 9.953125 0 Z M 9.953125 -1.03125 "/></g></g></g><g fill="#ffffff" fill-opacity="1"><g transform="translate(78.688174, 218.749922)"><g><path d="M 1.84375 -1.03125 C 2.457031 -1.03125 3.039062 -1.078125 3.59375 -1.171875 C 4.144531 -1.273438 4.628906 -1.457031 5.046875 -1.71875 C 5.472656 -1.988281 5.8125 -2.363281 6.0625 -2.84375 C 6.3125 -3.320312 6.4375 -3.960938 6.4375 -4.765625 L 6.4375 -33.6875 C 6.4375 -34.5 6.3125 -35.144531 6.0625 -35.625 C 5.8125 -36.101562 5.472656 -36.472656 5.046875 -36.734375 C 4.628906 -37.003906 4.144531 -37.1875 3.59375 -37.28125 C 3.039062 -37.382812 2.457031 -37.4375 1.84375 -37.4375 L 1.84375 -38.46875 C 2.914062 -38.46875 3.804688 -38.457031 4.515625 -38.4375 C 5.222656 -38.414062 5.828125 -38.394531 6.328125 -38.375 C 6.828125 -38.363281 7.257812 -38.347656 7.625 -38.328125 C 7.988281 -38.304688 8.378906 -38.296875 8.796875 -38.296875 C 9.566406 -38.296875 10.488281 -38.320312 11.5625 -38.375 C 12.632812 -38.4375 13.609375 -38.46875 14.484375 -38.46875 L 25.8125 -10.34375 L 37.3125 -38.46875 C 38.082031 -38.46875 38.800781 -38.4375 39.46875 -38.375 C 40.144531 -38.320312 40.921875 -38.296875 41.796875 -38.296875 C 42.296875 -38.296875 42.785156 -38.304688 43.265625 -38.328125 C 43.742188 -38.347656 44.269531 -38.363281 44.84375 -38.375 C 45.425781 -38.394531 46.097656 -38.414062 46.859375 -38.4375 C 47.628906 -38.457031 48.570312 -38.46875 49.6875 -38.46875 L 49.6875 -37.4375 C 49.070312 -37.4375 48.484375 -37.382812 47.921875 -37.28125 C 47.367188 -37.1875 46.878906 -37.003906 46.453125 -36.734375 C 46.035156 -36.472656 45.703125 -36.101562 45.453125 -35.625 C 45.203125 -35.144531 45.078125 -34.5 45.078125 -33.6875 L 45.078125 -4.765625 C 45.078125 -3.960938 45.203125 -3.320312 45.453125 -2.84375 C 45.703125 -2.363281 46.035156 -1.988281 46.453125 -1.71875 C 46.878906 -1.457031 47.367188 -1.273438 47.921875 -1.171875 C 48.484375 -1.078125 49.070312 -1.03125 49.6875 -1.03125 L 49.6875 0 C 48.53125 0 47.550781 -0.0078125 46.75 -0.03125 C 45.945312 -0.0507812 45.21875 -0.078125 44.5625 -0.109375 C 43.90625 -0.148438 43.300781 -0.179688 42.75 -0.203125 C 42.195312 -0.222656 41.613281 -0.234375 41 -0.234375 C 40.34375 -0.234375 39.742188 -0.222656 39.203125 -0.203125 C 38.671875 -0.179688 38.078125 -0.148438 37.421875 -0.109375 C 36.773438 -0.078125 36.050781 -0.0507812 35.25 -0.03125 C 34.445312 -0.0078125 33.46875 0 32.3125 0 L 32.3125 -1.03125 C 32.925781 -1.03125 33.507812 -1.078125 34.0625 -1.171875 C 34.625 -1.273438 35.113281 -1.457031 35.53125 -1.71875 C 35.957031 -1.988281 36.296875 -2.363281 36.546875 -2.84375 C 36.796875 -3.320312 36.921875 -3.960938 36.921875 -4.765625 L 36.921875 -33.0625 L 23.40625 0.0625 L 21.625 0.0625 L 8.171875 -32.828125 L 8.171875 -4.765625 C 8.171875 -3.960938 8.289062 -3.320312 8.53125 -2.84375 C 8.78125 -2.363281 9.113281 -1.988281 9.53125 -1.71875 C 9.957031 -1.457031 10.445312 -1.273438 11 -1.171875 C 11.5625 -1.078125 12.148438 -1.03125 12.765625 -1.03125 L 12.765625 0 C 11.992188 0 11.347656 -0.0078125 10.828125 -0.03125 C 10.316406 -0.0507812 9.859375 -0.0664062 9.453125 -0.078125 C 9.054688 -0.0976562 8.679688 -0.117188 8.328125 -0.140625 C 7.984375 -0.160156 7.601562 -0.171875 7.1875 -0.171875 C 6.769531 -0.171875 6.394531 -0.160156 6.0625 -0.140625 C 5.738281 -0.117188 5.382812 -0.0976562 5 -0.078125 C 4.613281 -0.0664062 4.179688 -0.0507812 3.703125 -0.03125 C 3.222656 -0.0078125 2.601562 0 1.84375 0 Z M 1.84375 -1.03125 "/></g></g></g><g fill="#1c1c1c" fill-opacity="1"><g transform="translate(130.495689, 218.749922)"><g><path d="M 23.40625 -39.15625 C 26.164062 -39.15625 28.789062 -38.6875 31.28125 -37.75 C 33.769531 -36.8125 35.960938 -35.46875 37.859375 -33.71875 C 39.753906 -31.976562 41.269531 -29.867188 42.40625 -27.390625 C 43.539062 -24.921875 44.109375 -22.171875 44.109375 -19.140625 C 44.109375 -16.035156 43.539062 -13.253906 42.40625 -10.796875 C 41.269531 -8.347656 39.753906 -6.257812 37.859375 -4.53125 C 35.960938 -2.8125 33.769531 -1.488281 31.28125 -0.5625 C 28.789062 0.351562 26.164062 0.8125 23.40625 0.8125 C 20.445312 0.8125 17.703125 0.34375 15.171875 -0.59375 C 12.648438 -1.539062 10.457031 -2.882812 8.59375 -4.625 C 6.738281 -6.375 5.273438 -8.484375 4.203125 -10.953125 C 3.128906 -13.421875 2.59375 -16.191406 2.59375 -19.265625 C 2.59375 -22.171875 3.117188 -24.84375 4.171875 -27.28125 C 5.222656 -29.71875 6.675781 -31.816406 8.53125 -33.578125 C 10.394531 -35.335938 12.597656 -36.707031 15.140625 -37.6875 C 17.691406 -38.664062 20.445312 -39.15625 23.40625 -39.15625 Z M 23.40625 -37.609375 C 21.375 -37.609375 19.609375 -37.085938 18.109375 -36.046875 C 16.617188 -35.015625 15.382812 -33.644531 14.40625 -31.9375 C 13.425781 -30.226562 12.695312 -28.265625 12.21875 -26.046875 C 11.738281 -23.828125 11.5 -21.523438 11.5 -19.140625 C 11.5 -16.578125 11.738281 -14.179688 12.21875 -11.953125 C 12.695312 -9.734375 13.425781 -7.800781 14.40625 -6.15625 C 15.382812 -4.507812 16.617188 -3.207031 18.109375 -2.25 C 19.609375 -1.289062 21.375 -0.8125 23.40625 -0.8125 C 25.351562 -0.8125 27.066406 -1.289062 28.546875 -2.25 C 30.023438 -3.207031 31.25 -4.507812 32.21875 -6.15625 C 33.195312 -7.800781 33.9375 -9.734375 34.4375 -11.953125 C 34.9375 -14.179688 35.1875 -16.578125 35.1875 -19.140625 C 35.1875 -21.597656 34.9375 -23.945312 34.4375 -26.1875 C 33.9375 -28.4375 33.195312 -30.398438 32.21875 -32.078125 C 31.25 -33.765625 30.023438 -35.109375 28.546875 -36.109375 C 27.066406 -37.109375 25.351562 -37.609375 23.40625 -37.609375 Z M 23.40625 -37.609375 "/></g></g></g><g fill="#1c1c1c" fill-opacity="1"><g transform="translate(177.754349, 218.749922)"><g><path d="M 12.1875 -0.234375 L 4.203125 -18.796875 C 3.546875 -20.296875 2.898438 -21.515625 2.265625 -22.453125 C 1.640625 -23.390625 0.75 -23.859375 -0.40625 -23.859375 L -0.40625 -24.890625 C 0.4375 -24.890625 1.15625 -24.878906 1.75 -24.859375 C 2.34375 -24.847656 2.878906 -24.832031 3.359375 -24.8125 C 3.835938 -24.789062 4.285156 -24.769531 4.703125 -24.75 C 5.128906 -24.726562 5.570312 -24.71875 6.03125 -24.71875 C 6.53125 -24.71875 6.988281 -24.726562 7.40625 -24.75 C 7.832031 -24.769531 8.296875 -24.789062 8.796875 -24.8125 C 9.296875 -24.832031 9.84375 -24.847656 10.4375 -24.859375 C 11.03125 -24.878906 11.726562 -24.890625 12.53125 -24.890625 L 12.53125 -23.859375 C 11.84375 -23.859375 11.203125 -23.753906 10.609375 -23.546875 C 10.015625 -23.335938 9.71875 -22.753906 9.71875 -21.796875 C 9.71875 -21.597656 9.765625 -21.351562 9.859375 -21.0625 C 9.953125 -20.78125 10.039062 -20.523438 10.125 -20.296875 L 15.46875 -7.703125 L 20.640625 -19.78125 C 20.753906 -20.082031 20.859375 -20.40625 20.953125 -20.75 C 21.054688 -21.101562 21.109375 -21.394531 21.109375 -21.625 C 21.109375 -22.5 20.859375 -23.082031 20.359375 -23.375 C 19.859375 -23.664062 19.1875 -23.828125 18.34375 -23.859375 L 18.34375 -24.890625 C 18.914062 -24.890625 19.382812 -24.878906 19.75 -24.859375 C 20.113281 -24.847656 20.4375 -24.84375 20.71875 -24.84375 C 21.007812 -24.84375 21.289062 -24.832031 21.5625 -24.8125 C 21.832031 -24.789062 22.117188 -24.78125 22.421875 -24.78125 C 23.035156 -24.78125 23.59375 -24.796875 24.09375 -24.828125 C 24.59375 -24.867188 25.359375 -24.890625 26.390625 -24.890625 L 26.390625 -23.859375 C 25.359375 -23.828125 24.535156 -23.453125 23.921875 -22.734375 C 23.304688 -22.023438 22.710938 -21.003906 22.140625 -19.671875 L 9.375 9.828125 C 9.144531 10.367188 8.875 10.960938 8.5625 11.609375 C 8.257812 12.265625 7.90625 12.878906 7.5 13.453125 C 7.101562 14.023438 6.65625 14.503906 6.15625 14.890625 C 5.65625 15.273438 5.097656 15.46875 4.484375 15.46875 C 4.066406 15.46875 3.675781 15.320312 3.3125 15.03125 C 2.945312 14.75 2.765625 14.335938 2.765625 13.796875 C 2.765625 13.378906 2.878906 13.023438 3.109375 12.734375 C 3.335938 12.453125 3.601562 12.210938 3.90625 12.015625 C 4.21875 11.828125 4.554688 11.664062 4.921875 11.53125 C 5.285156 11.394531 5.617188 11.289062 5.921875 11.21875 C 6.222656 11.132812 6.644531 10.796875 7.1875 10.203125 C 7.726562 9.609375 8.265625 8.71875 8.796875 7.53125 Z M 12.1875 -0.234375 "/></g></g></g><g fill="#1c1c1c" fill-opacity="1"><g transform="translate(203.165897, 218.749922)"><g><path d="M 25.125 -4.203125 C 24.664062 -3.617188 24.117188 -3.039062 23.484375 -2.46875 C 22.859375 -1.894531 22.140625 -1.378906 21.328125 -0.921875 C 20.523438 -0.460938 19.613281 -0.0820312 18.59375 0.21875 C 17.582031 0.53125 16.460938 0.6875 15.234375 0.6875 C 13.628906 0.6875 12.054688 0.410156 10.515625 -0.140625 C 8.984375 -0.703125 7.601562 -1.519531 6.375 -2.59375 C 5.15625 -3.664062 4.171875 -4.992188 3.421875 -6.578125 C 2.671875 -8.171875 2.296875 -9.984375 2.296875 -12.015625 C 2.296875 -13.859375 2.640625 -15.582031 3.328125 -17.1875 C 4.023438 -18.800781 4.96875 -20.21875 6.15625 -21.4375 C 7.34375 -22.664062 8.738281 -23.632812 10.34375 -24.34375 C 11.957031 -25.0625 13.6875 -25.421875 15.53125 -25.421875 C 16.863281 -25.421875 18.160156 -25.195312 19.421875 -24.75 C 20.691406 -24.3125 21.816406 -23.679688 22.796875 -22.859375 C 23.773438 -22.035156 24.578125 -21.046875 25.203125 -19.890625 C 25.835938 -18.742188 26.210938 -17.476562 26.328125 -16.09375 C 26.328125 -15.863281 26.316406 -15.65625 26.296875 -15.46875 C 26.285156 -15.28125 26.179688 -15.1875 25.984375 -15.1875 L 9.140625 -15.1875 C 9.066406 -14.53125 9.019531 -13.976562 9 -13.53125 C 8.976562 -13.09375 8.96875 -12.609375 8.96875 -12.078125 C 8.96875 -10.460938 9.148438 -8.972656 9.515625 -7.609375 C 9.878906 -6.253906 10.382812 -5.085938 11.03125 -4.109375 C 11.6875 -3.128906 12.492188 -2.367188 13.453125 -1.828125 C 14.410156 -1.296875 15.484375 -1.03125 16.671875 -1.03125 C 17.710938 -1.03125 18.632812 -1.164062 19.4375 -1.4375 C 20.238281 -1.707031 20.960938 -2.023438 21.609375 -2.390625 C 22.265625 -2.753906 22.820312 -3.15625 23.28125 -3.59375 C 23.75 -4.03125 24.15625 -4.421875 24.5 -4.765625 Z M 18.859375 -16.5625 C 19.472656 -16.5625 19.78125 -16.867188 19.78125 -17.484375 C 19.78125 -18.210938 19.710938 -18.96875 19.578125 -19.75 C 19.441406 -20.539062 19.203125 -21.257812 18.859375 -21.90625 C 18.515625 -22.5625 18.0625 -23.097656 17.5 -23.515625 C 16.945312 -23.941406 16.25 -24.15625 15.40625 -24.15625 C 14.332031 -24.15625 13.441406 -23.90625 12.734375 -23.40625 C 12.023438 -22.90625 11.441406 -22.28125 10.984375 -21.53125 C 10.523438 -20.78125 10.171875 -19.960938 9.921875 -19.078125 C 9.671875 -18.203125 9.46875 -17.363281 9.3125 -16.5625 Z M 18.859375 -16.5625 "/></g></g></g><g fill="#1c1c1c" fill-opacity="1"><g transform="translate(231.049608, 218.749922)"><g><path d="M 5.578125 -32.890625 C 5.578125 -33.617188 5.476562 -34.203125 5.28125 -34.640625 C 5.09375 -35.085938 4.828125 -35.425781 4.484375 -35.65625 C 4.140625 -35.882812 3.738281 -36.023438 3.28125 -36.078125 C 2.820312 -36.140625 2.300781 -36.171875 1.71875 -36.171875 L 1.71875 -37.203125 C 2.414062 -37.242188 3.203125 -37.328125 4.078125 -37.453125 C 4.960938 -37.585938 5.863281 -37.742188 6.78125 -37.921875 C 7.707031 -38.097656 8.609375 -38.289062 9.484375 -38.5 C 10.367188 -38.707031 11.15625 -38.945312 11.84375 -39.21875 L 11.84375 -4.3125 C 11.84375 -3.539062 11.9375 -2.941406 12.125 -2.515625 C 12.320312 -2.097656 12.59375 -1.773438 12.9375 -1.546875 C 13.28125 -1.316406 13.679688 -1.171875 14.140625 -1.109375 C 14.597656 -1.054688 15.117188 -1.03125 15.703125 -1.03125 L 15.703125 0 C 14.773438 0 13.976562 -0.0078125 13.3125 -0.03125 C 12.644531 -0.0507812 12.050781 -0.0664062 11.53125 -0.078125 C 11.007812 -0.0976562 10.519531 -0.117188 10.0625 -0.140625 C 9.601562 -0.160156 9.125 -0.171875 8.625 -0.171875 C 8.082031 -0.171875 7.59375 -0.160156 7.15625 -0.140625 C 6.71875 -0.117188 6.25 -0.0976562 5.75 -0.078125 C 5.25 -0.0664062 4.679688 -0.0507812 4.046875 -0.03125 C 3.421875 -0.0078125 2.644531 0 1.71875 0 L 1.71875 -1.03125 C 2.300781 -1.03125 2.820312 -1.054688 3.28125 -1.109375 C 3.738281 -1.171875 4.140625 -1.316406 4.484375 -1.546875 C 4.828125 -1.773438 5.09375 -2.097656 5.28125 -2.515625 C 5.476562 -2.941406 5.578125 -3.539062 5.578125 -4.3125 Z M 5.578125 -32.890625 "/></g></g></g><g fill="#1c1c1c" fill-opacity="1"><g transform="translate(247.894806, 218.749922)"><g><path d="M 16.046875 -24.203125 C 14.859375 -24.203125 13.832031 -23.894531 12.96875 -23.28125 C 12.101562 -22.675781 11.390625 -21.832031 10.828125 -20.75 C 10.273438 -19.675781 9.863281 -18.421875 9.59375 -16.984375 C 9.332031 -15.546875 9.203125 -14.023438 9.203125 -12.421875 C 9.203125 -10.804688 9.332031 -9.28125 9.59375 -7.84375 C 9.863281 -6.40625 10.273438 -5.148438 10.828125 -4.078125 C 11.390625 -3.003906 12.101562 -2.148438 12.96875 -1.515625 C 13.832031 -0.890625 14.859375 -0.578125 16.046875 -0.578125 C 17.191406 -0.578125 18.175781 -0.890625 19 -1.515625 C 19.820312 -2.148438 20.507812 -3.003906 21.0625 -4.078125 C 21.625 -5.148438 22.03125 -6.414062 22.28125 -7.875 C 22.53125 -9.332031 22.65625 -10.867188 22.65625 -12.484375 C 22.65625 -14.085938 22.53125 -15.597656 22.28125 -17.015625 C 22.03125 -18.429688 21.625 -19.675781 21.0625 -20.75 C 20.507812 -21.832031 19.820312 -22.675781 19 -23.28125 C 18.175781 -23.894531 17.191406 -24.203125 16.046875 -24.203125 Z M 29.5625 -12.484375 C 29.5625 -10.566406 29.210938 -8.800781 28.515625 -7.1875 C 27.828125 -5.570312 26.867188 -4.179688 25.640625 -3.015625 C 24.421875 -1.847656 22.984375 -0.925781 21.328125 -0.25 C 19.679688 0.414062 17.921875 0.75 16.046875 0.75 C 14.128906 0.75 12.335938 0.414062 10.671875 -0.25 C 9.003906 -0.925781 7.554688 -1.847656 6.328125 -3.015625 C 5.097656 -4.179688 4.117188 -5.570312 3.390625 -7.1875 C 2.660156 -8.800781 2.296875 -10.546875 2.296875 -12.421875 C 2.296875 -14.410156 2.660156 -16.207031 3.390625 -17.8125 C 4.117188 -19.425781 5.101562 -20.804688 6.34375 -21.953125 C 7.59375 -23.109375 9.050781 -23.992188 10.71875 -24.609375 C 12.382812 -25.222656 14.160156 -25.53125 16.046875 -25.53125 C 17.847656 -25.53125 19.5625 -25.222656 21.1875 -24.609375 C 22.8125 -23.992188 24.25 -23.109375 25.5 -21.953125 C 26.75 -20.804688 27.738281 -19.425781 28.46875 -17.8125 C 29.195312 -16.207031 29.5625 -14.429688 29.5625 -12.484375 Z M 29.5625 -12.484375 "/></g></g></g><g fill="#1c1c1c" fill-opacity="1"><g transform="translate(279.74552, 218.749922)"><g><path d="M -0.578125 -24.953125 C 0.992188 -24.953125 2.269531 -24.910156 3.25 -24.828125 C 4.226562 -24.753906 5.195312 -24.71875 6.15625 -24.71875 C 6.65625 -24.71875 7.113281 -24.726562 7.53125 -24.75 C 7.957031 -24.769531 8.410156 -24.796875 8.890625 -24.828125 C 9.367188 -24.867188 9.882812 -24.898438 10.4375 -24.921875 C 10.988281 -24.941406 11.671875 -24.953125 12.484375 -24.953125 L 12.484375 -23.921875 C 11.710938 -23.921875 11.019531 -23.773438 10.40625 -23.484375 C 9.789062 -23.203125 9.46875 -22.617188 9.4375 -21.734375 C 9.4375 -21.316406 9.507812 -20.875 9.65625 -20.40625 L 14.484375 -7.078125 L 20.875 -24.890625 L 22.828125 -24.890625 L 30.25 -6.734375 L 34.734375 -19.5 C 34.992188 -20.300781 35.125 -20.988281 35.125 -21.5625 C 35.125 -22.519531 34.851562 -23.140625 34.3125 -23.421875 C 33.78125 -23.710938 33.054688 -23.878906 32.140625 -23.921875 L 32.140625 -24.953125 C 33.171875 -24.953125 33.984375 -24.929688 34.578125 -24.890625 C 35.179688 -24.859375 35.804688 -24.84375 36.453125 -24.84375 C 37.066406 -24.84375 37.625 -24.859375 38.125 -24.890625 C 38.625 -24.929688 39.367188 -24.953125 40.359375 -24.953125 L 40.359375 -23.921875 C 39.554688 -23.921875 38.8125 -23.613281 38.125 -23 C 37.4375 -22.382812 36.859375 -21.40625 36.390625 -20.0625 L 29.03125 1.09375 L 27.03125 1.09375 L 19.671875 -17.140625 L 13.046875 1.09375 L 11.046875 1.09375 L 3.859375 -18.921875 C 3.660156 -19.492188 3.445312 -20.078125 3.21875 -20.671875 C 2.988281 -21.265625 2.707031 -21.800781 2.375 -22.28125 C 2.050781 -22.757812 1.648438 -23.148438 1.171875 -23.453125 C 0.691406 -23.765625 0.109375 -23.921875 -0.578125 -23.921875 Z M -0.578125 -24.953125 "/></g></g></g><g fill="#1c1c1c" fill-opacity="1"><g transform="translate(319.817577, 218.749922)"><g><path d="M 16.046875 -24.203125 C 14.859375 -24.203125 13.832031 -23.894531 12.96875 -23.28125 C 12.101562 -22.675781 11.390625 -21.832031 10.828125 -20.75 C 10.273438 -19.675781 9.863281 -18.421875 9.59375 -16.984375 C 9.332031 -15.546875 9.203125 -14.023438 9.203125 -12.421875 C 9.203125 -10.804688 9.332031 -9.28125 9.59375 -7.84375 C 9.863281 -6.40625 10.273438 -5.148438 10.828125 -4.078125 C 11.390625 -3.003906 12.101562 -2.148438 12.96875 -1.515625 C 13.832031 -0.890625 14.859375 -0.578125 16.046875 -0.578125 C 17.191406 -0.578125 18.175781 -0.890625 19 -1.515625 C 19.820312 -2.148438 20.507812 -3.003906 21.0625 -4.078125 C 21.625 -5.148438 22.03125 -6.414062 22.28125 -7.875 C 22.53125 -9.332031 22.65625 -10.867188 22.65625 -12.484375 C 22.65625 -14.085938 22.53125 -15.597656 22.28125 -17.015625 C 22.03125 -18.429688 21.625 -19.675781 21.0625 -20.75 C 20.507812 -21.832031 19.820312 -22.675781 19 -23.28125 C 18.175781 -23.894531 17.191406 -24.203125 16.046875 -24.203125 Z M 29.5625 -12.484375 C 29.5625 -10.566406 29.210938 -8.800781 28.515625 -7.1875 C 27.828125 -5.570312 26.867188 -4.179688 25.640625 -3.015625 C 24.421875 -1.847656 22.984375 -0.925781 21.328125 -0.25 C 19.679688 0.414062 17.921875 0.75 16.046875 0.75 C 14.128906 0.75 12.335938 0.414062 10.671875 -0.25 C 9.003906 -0.925781 7.554688 -1.847656 6.328125 -3.015625 C 5.097656 -4.179688 4.117188 -5.570312 3.390625 -7.1875 C 2.660156 -8.800781 2.296875 -10.546875 2.296875 -12.421875 C 2.296875 -14.410156 2.660156 -16.207031 3.390625 -17.8125 C 4.117188 -19.425781 5.101562 -20.804688 6.34375 -21.953125 C 7.59375 -23.109375 9.050781 -23.992188 10.71875 -24.609375 C 12.382812 -25.222656 14.160156 -25.53125 16.046875 -25.53125 C 17.847656 -25.53125 19.5625 -25.222656 21.1875 -24.609375 C 22.8125 -23.992188 24.25 -23.109375 25.5 -21.953125 C 26.75 -20.804688 27.738281 -19.425781 28.46875 -17.8125 C 29.195312 -16.207031 29.5625 -14.429688 29.5625 -12.484375 Z M 29.5625 -12.484375 "/></g></g></g></svg>